# xmcd CD database file
#
# Track frame offsets:
#	150
#	10885
#	20975
#	33237
#	43449
#	70858
#	85659
#	103602
#	119640
#	138710
#	155147
#	167448
#	190388
#	208555
#	222225
#	231520
#	251111
#	283238
#	305507
#
# Disc length: 4326 seconds
#
# Revision: 1
# Processed by: cddbd v1.5.2PL0 Copyright (c) Steve Scherf et al.
# Submitted via: CDex 1.70beta1
#
DISCID=2710e413
DTITLE=Humphrey Lyttleton - 1957 - 58 Cd 1
DYEAR=1900
DGENRE=Jazz
TTITLE0=Baby Doll 
TTITLE1=Red Beans and Rice 
TTITLE2=Early Call 
TTITLE3=Creole Serenade 
TTITLE4=Apex Blues 
TTITLE5=You Brought A New Kind Of Love 
TTITLE6=I Want A Little Girl 
TTITLE7=Jersey Lightning 
TTITLE8=Rockin' Chair 
TTITLE9=Someone Stole Gabriel's Horn 
TTITLE10=Just Squeeze Me 
TTITLE11=Ole Miss 
TTITLE12=Blues At Dawn 
TTITLE13=Blues No. 1 
TTITLE14=O Sole Mio 
TTITLE15=Gee Baby Ain't I Good To You 
TTITLE16=Going Out The Back Way 
TTITLE17=Packet Of Blues 
TTITLE18=Rain 
EXTD=
EXTT0=
EXTT1=
EXTT2=
EXTT3=
EXTT4=
EXTT5=
EXTT6=
EXTT7=
EXTT8=
EXTT9=
EXTT10=
EXTT11=
EXTT12=
EXTT13=
EXTT14=
EXTT15=
EXTT16=
EXTT17=
EXTT18=
PLAYORDER=
